<svg width="206" height="240" viewBox="0 0 206 240" fill="none" xmlns="http://www.w3.org/2000/svg">
<g clip-path="url(#clip0)">
<path d="M114.66 52.5605H107.55C106.667 52.5605 106.226 53.6264 106.85 54.2499L110.404 57.7997C110.792 58.186 111.419 58.186 111.807 57.7997L115.361 54.2499C115.985 53.6268 115.544 52.5605 114.66 52.5605H114.66Z" fill="black" stroke="black" stroke-width="0.292824" stroke-miterlimit="22.9256"/>
<path fill-rule="evenodd" clip-rule="evenodd" d="M81.9278 26.4505L97.2934 16.0581C74.7061 -7.87391 79.4591 -5.57422 81.9278 26.4505Z" fill="black"/>
<path fill-rule="evenodd" clip-rule="evenodd" d="M127.038 18.2333L128.229 17.946L127.133 16.8403C151.244 -8.97425 145.295 -3.86251 141.865 29.5248L133.19 22.0559L127.038 18.233L127.038 18.2333Z" fill="black"/>
<path fill-rule="evenodd" clip-rule="evenodd" d="M185.443 91.7606C185.445 91.9337 185.451 92.1057 185.451 92.2792C185.451 93.6283 185.41 94.9663 185.337 96.2949C183.983 128.198 170.296 145.156 150.222 153.305C150.904 151.497 152.587 147.227 152.801 145.959C153.816 139.952 153.115 133.798 153.265 127.743C153.274 127.37 152.977 127.06 152.604 127.05C152.232 127.041 151.92 127.337 151.911 127.709C151.764 133.676 152.464 139.827 151.466 145.733C151.165 147.512 148.98 152.888 148.305 154.55C147.76 155.728 147.236 156.989 147.069 158.041C146.632 160.786 148.146 160.045 149.024 161.53C149.919 163.043 148.89 165.104 147.229 165.495C145.499 165.902 143.863 163.632 142.703 163.894C141.741 164.11 142.099 166.353 139.683 166.963C137.198 167.59 137.107 165.771 135.992 165.813C134.489 165.872 133.508 167.886 131.262 167.025C129.52 166.358 128.41 165.565 128.157 163.64C127.947 162.043 128.402 161.727 128.829 160.291C128.879 160.124 128.847 159.739 128.758 159.214L128.757 159.213C128.73 159.052 128.698 158.878 128.661 158.692L128.627 158.697C128.026 156.272 127.108 152.129 126.879 151.284C126.227 148.885 125.553 146.425 125.232 143.957C124.55 138.704 124.996 133.427 124.878 128.153C124.87 127.781 124.559 127.485 124.186 127.493C123.813 127.501 123.516 127.811 123.524 128.184C123.643 133.517 123.199 138.814 123.889 144.131C124.218 146.665 124.903 149.176 125.572 151.638C125.791 152.445 126.684 156.527 127.276 158.862C121.762 159.505 116.016 159.79 110.11 159.79C105.223 159.79 100.435 159.665 95.7913 159.348C96.3949 156.935 97.355 152.44 97.5728 151.638C98.2406 149.176 98.9257 146.665 99.2551 144.131C99.9461 138.814 99.5016 133.517 99.6209 128.184C99.6289 127.811 99.3317 127.501 98.959 127.493C98.5859 127.485 98.2752 127.781 98.2666 128.153C98.1487 133.427 98.5942 138.705 97.9122 143.957C97.5911 146.425 96.9171 148.885 96.266 151.284C96.0361 152.132 95.0358 156.763 94.4234 159.248L94.3818 159.245C94.3576 159.393 94.3374 159.528 94.3225 159.652L94.2972 159.751L94.3111 159.753C94.2854 160.003 94.2854 160.188 94.316 160.291C94.7424 161.727 95.198 162.043 94.9879 163.64C94.7345 165.565 93.6246 166.358 91.8833 167.025C89.6365 167.886 88.6563 165.872 87.1529 165.813C86.0375 165.771 85.9473 167.59 83.462 166.963C81.0456 166.353 81.4042 164.11 80.4423 163.894C79.2822 163.632 77.6456 165.902 75.9155 165.495C74.2546 165.104 73.2266 163.043 74.1211 161.53C74.9991 160.045 76.5129 160.786 76.0763 158.041C76.0323 157.764 75.964 157.473 75.8766 157.173C75.5053 155.698 71.9797 147.513 71.6791 145.733C70.6816 139.828 71.3809 133.675 71.2339 127.709C71.2249 127.337 70.9132 127.041 70.5405 127.05C70.1677 127.059 69.8713 127.37 69.8803 127.743C70.0294 133.798 69.329 139.952 70.3439 145.959C70.5516 147.189 73.0678 153.419 74.0189 155.858C70.296 154.804 66.7591 153.491 63.445 151.866C63.0338 152.381 62.2149 152.854 60.8605 153.221C54.6024 154.914 38.4637 154.353 31.1477 146.709C18.9474 133.961 26.6312 119.929 26.6378 110.579C26.6416 104.768 13.847 95.3516 25.3341 88.4369C29.3274 86.033 32.5037 89.4519 34.7651 93.9388C34.7575 92.9643 34.7578 91.9783 34.77 90.9755C34.77 89.0957 34.8594 87.2339 35.0349 85.3936C37.265 57.8319 53.6628 39.5319 76.6956 30.9441C72.7436 37.2021 70.4562 44.6139 70.4562 52.5584C70.4562 53.0189 70.4645 53.4772 70.4798 53.9342C69.7007 53.8359 68.8769 53.7587 67.9556 53.7254L60.027 53.9536C59.8512 53.9549 59.6588 54.0429 59.5173 54.1682C59.3693 54.2994 59.2593 54.4856 59.2566 54.6771V54.6816C59.2555 54.8561 59.3509 55.0589 59.4823 55.2106C59.622 55.3712 59.8221 55.4937 60.0163 55.4972H60.0443C61.2454 55.4158 62.6871 55.259 64.0449 55.1115C65.6315 54.9395 67.1041 54.7796 67.9216 54.7681L70.528 54.9751C70.6563 57.1592 70.9586 59.2969 71.4194 61.3747C70.8567 61.4993 70.3037 61.6246 69.7874 61.7586L65.5708 62.8965C65.4415 62.9329 65.3198 63.035 65.2463 63.1517C65.1769 63.2597 65.1385 63.394 65.1544 63.5224C65.1544 63.5456 65.1617 63.5646 65.1683 63.5872C65.2047 63.7177 65.3146 63.843 65.436 63.9188C65.5677 64.0022 65.7376 64.0458 65.8829 64.0057L65.9106 63.9967C66.6145 63.735 67.3849 63.4622 68.1227 63.2154C68.7892 62.9924 69.4417 62.7864 70.0065 62.6258L71.6042 62.1716C73.3909 69.5169 77.1793 76.0809 82.3601 81.2536C89.7152 88.5968 99.8768 93.1395 111.1 93.1395C122.324 93.1395 132.485 88.5972 139.84 81.2536C144.836 76.2661 148.536 69.986 150.396 62.9588C150.653 63.0402 150.916 63.1264 151.181 63.2154C151.919 63.4625 152.69 63.7353 153.394 63.9967L153.421 64.0057C153.567 64.0462 153.737 64.0019 153.869 63.9198C153.99 63.843 154.099 63.7173 154.137 63.5872C154.142 63.565 154.15 63.5453 154.15 63.5224C154.166 63.3936 154.128 63.2597 154.058 63.1513C153.984 63.035 153.863 62.9332 153.733 62.8965L153.684 62.8834L150.624 62.0577C151.189 59.7044 151.549 57.271 151.684 54.7775C152.535 54.8156 153.852 54.9589 155.259 55.1115C156.617 55.259 158.058 55.4158 159.26 55.4972H159.288C159.482 55.4937 159.682 55.3712 159.821 55.2099C159.953 55.0589 160.049 54.8561 160.049 54.6812L160.048 54.6771C160.045 54.4853 159.935 54.2991 159.787 54.1682C159.646 54.0432 159.453 53.9549 159.277 53.9536L151.727 53.7362C151.738 53.3446 151.744 52.9527 151.744 52.5584C151.744 45.5614 149.971 38.978 146.848 33.2321C169.878 44.5457 185.45 66.1628 185.45 90.9755C185.45 91.2399 185.443 91.4975 185.442 91.7603L185.443 91.7606ZM79.8404 29.8433C83.3483 28.6974 86.9944 27.7662 90.7558 27.0513C96.9324 25.6143 103.419 24.8447 110.111 24.8447C122.172 24.8447 133.568 27.3369 143.675 31.759C147.528 37.7619 149.762 44.8998 149.762 52.5584C149.762 52.9846 149.755 53.409 149.741 53.8321C148.637 53.938 147.651 54.0976 146.656 54.2589C146.057 54.3558 145.453 54.4541 144.821 54.54C144.7 54.5431 144.617 54.5549 144.567 54.5687C144.519 54.5808 144.477 54.5982 144.444 54.6186C144.327 54.6882 144.273 54.7903 144.273 54.917L144.276 54.9502C144.287 55.0645 144.379 55.241 144.633 55.277C144.681 55.2839 144.75 55.2884 144.846 55.2867L149.691 54.9021C149.555 57.1803 149.22 59.4046 148.705 61.5592C148.332 61.4723 147.949 61.3872 147.563 61.3013C147.031 61.1843 146.493 61.0659 146.052 60.9593C145.974 60.9378 145.914 60.9288 145.873 60.9267C145.835 60.9254 145.795 60.9274 145.757 60.9368C145.623 60.97 145.538 61.0521 145.505 61.1864L145.494 61.2283L145.496 61.2688C145.498 61.3757 145.549 61.5204 145.728 61.6004C145.763 61.617 145.806 61.6329 145.856 61.6471L148.494 62.397C146.729 69.1025 143.204 75.096 138.439 79.8529C131.443 86.8375 121.777 91.1586 111.102 91.1586C100.426 91.1586 90.7606 86.8375 83.7643 79.8529C78.8183 74.9146 75.2071 68.6439 73.5151 61.6267C73.5383 61.6188 73.5598 61.6098 73.5792 61.6011C73.7592 61.5204 73.8098 61.3761 73.8126 61.2684V61.2286L73.8022 61.1867C73.7699 61.0572 73.6908 60.9724 73.5497 60.9371C73.5119 60.9281 73.4724 60.9257 73.4336 60.9271C73.4124 60.9281 73.3864 60.9312 73.3552 60.9364C72.9371 59.0504 72.6573 57.1125 72.5265 55.1334L74.4606 55.2867C74.557 55.2884 74.6263 55.2836 74.6742 55.277C74.9283 55.241 75.0202 55.0641 75.0313 54.9502L75.0341 54.916C75.0341 54.7903 74.98 54.6882 74.8628 54.6182C74.8302 54.5985 74.7886 54.5812 74.7404 54.568C74.6901 54.5552 74.6073 54.5435 74.4855 54.5403C73.8542 54.4545 73.2502 54.3562 72.6507 54.2592L72.478 54.2312C72.4544 53.6766 72.4416 53.1193 72.4416 52.5588C72.4416 44.0679 75.1873 36.2169 79.8411 29.8433H79.8404ZM56.6155 147.831C48.0205 141.751 41.4954 132.749 37.8985 119.546C36.5209 125.206 34.5463 128.76 36.4592 134.398C38.0105 138.974 43.0717 145.281 47.86 146.167C52.1802 146.968 53.3383 147.844 56.6155 147.831V147.831Z" fill="black"/>
<path d="M149.762 52.5591C149.762 41.9005 145.434 32.2499 138.438 25.2646C131.442 18.28 121.777 13.959 111.101 13.959C100.426 13.959 90.7601 18.2797 83.7639 25.2646C76.7679 32.2496 72.4404 41.9001 72.4404 52.5591C72.4404 53.1196 72.4533 53.677 72.4768 54.2315L72.6495 54.2596C73.249 54.3565 73.853 54.4548 74.4844 54.5407C74.6061 54.5438 74.689 54.5556 74.7392 54.5684C74.7878 54.5815 74.8294 54.5992 74.8616 54.6186C74.9788 54.6885 75.0329 54.7906 75.0329 54.9163L75.0301 54.9506C75.019 55.0645 74.9272 55.2414 74.673 55.2774C74.6252 55.2843 74.5558 55.2888 74.4594 55.2871L72.5254 55.1337C72.6561 57.1128 72.9359 59.0508 73.3541 60.9368C73.3853 60.9312 73.4113 60.9285 73.4324 60.9274C73.4712 60.926 73.5108 60.9285 73.5486 60.9375C73.6897 60.9728 73.7691 61.0576 73.801 61.1871L73.8114 61.229V61.2688C73.8086 61.3761 73.7583 61.5204 73.578 61.6014C73.5586 61.6101 73.5375 61.6191 73.5139 61.6271C75.2059 68.6442 78.8174 74.915 83.7632 79.8533C90.7591 86.8379 100.425 91.1589 111.101 91.1589C121.776 91.1589 131.441 86.8379 138.438 79.8533C143.202 75.0964 146.728 69.1029 148.493 62.3973L145.855 61.6475C145.805 61.6333 145.762 61.6174 145.727 61.6008C145.548 61.5211 145.497 61.3761 145.495 61.2691L145.493 61.2286L145.504 61.1867C145.537 61.0524 145.623 60.9704 145.756 60.9371C145.794 60.9278 145.833 60.9257 145.872 60.9271C145.913 60.9292 145.973 60.9382 146.051 60.9596C146.492 61.0666 147.03 61.1846 147.561 61.3017C147.947 61.3875 148.331 61.4727 148.704 61.5596C149.219 59.4049 149.554 57.1803 149.69 54.9025L144.845 55.2871C144.749 55.2888 144.679 55.2839 144.632 55.2774C144.378 55.2414 144.286 55.0648 144.274 54.9506L144.272 54.9173C144.272 54.7906 144.326 54.6885 144.443 54.6189C144.476 54.5985 144.518 54.5815 144.566 54.5691C144.616 54.5552 144.698 54.5435 144.82 54.5403C145.452 54.4545 146.056 54.3562 146.655 54.2592C147.65 54.0979 148.636 53.938 149.74 53.8324C149.753 53.4097 149.761 52.9849 149.761 52.5588L149.762 52.5591Z" fill="black"/>
<path d="M109.575 103.709L94.7051 115.71V91.709L109.575 103.709Z" fill="#E37005"/>
<path d="M109.575 103.709L124.444 115.71V91.709L109.575 103.709Z" fill="#E37005"/>
<path fill-rule="evenodd" clip-rule="evenodd" d="M93.7544 33.4322C90.9386 35.195 89.5545 39.2031 91.182 42.2495C92.5197 44.7524 98.3 48.4652 101.111 48.0128C105.24 47.3481 107.187 43.3338 105.881 39.6206C105.179 37.6248 103.63 35.843 102.301 34.611C100.207 32.6692 96.2657 31.8599 93.7547 33.4319L93.7544 33.4322Z" fill="#FEFEFE"/>
<path fill-rule="evenodd" clip-rule="evenodd" d="M111.191 56.7674L109.075 54.2323C108.235 53.2246 115.11 53.4039 114.114 54.2586L111.191 56.7674Z" fill="#FEFEFE"/>
<path fill-rule="evenodd" clip-rule="evenodd" d="M113.584 40.9188C114.121 42.7684 115.364 43.8305 116.942 44.7763C120.065 46.6477 124.712 47.0625 127.037 43.7478C128.035 42.3263 128.683 40.7107 128.201 38.5858C127.415 35.1174 124.383 33.1431 121.019 32.6484C116.239 31.944 112.287 36.4433 113.585 40.9184L113.584 40.9188Z" fill="#FEFEFE"/>
<path d="M120.299 40.9149C121.14 41.2187 122.069 40.7839 122.373 39.9437C122.678 39.1035 122.242 38.1761 121.401 37.8723C120.559 37.5685 119.63 38.0034 119.326 38.8436C119.022 39.6838 119.457 40.6111 120.299 40.9149Z" fill="#1F1B20" stroke="#1F1B20" stroke-width="0.133032" stroke-miterlimit="22.9256"/>
<path d="M98.388 41.803C99.2049 42.0979 100.107 41.6758 100.402 40.8601C100.697 40.0445 100.275 39.1443 99.4576 38.8494C98.6407 38.5545 97.7391 38.9766 97.4437 39.7922C97.1483 40.6078 97.5711 41.5081 98.388 41.803Z" fill="#1F1B20" stroke="#1F1B20" stroke-width="0.133032" stroke-miterlimit="22.9256"/>
<path d="M91.7015 65.21C92.31 65.6289 92.9397 66.0319 93.5558 66.5242C98.3434 70.4779 103.673 74.6913 110.742 70.8296L111.184 70.5776L111.636 70.3038C111.951 70.1054 112.368 70.1999 112.567 70.515C112.621 70.6012 112.654 70.695 112.665 70.7902C112.901 70.8161 113.108 70.8549 113.296 70.9293C116.533 72.2074 119.587 71.9049 122.221 70.7067C125.402 69.259 128.358 66.8098 129.965 63.96C129.781 63.9697 129.644 64.0337 129.496 64.069C129.367 64.1023 129.226 64.1355 129.048 64.1621C128.679 64.2175 128.334 63.9631 128.278 63.5944C128.223 63.2257 128.478 62.8813 128.847 62.8259C128.97 62.8075 129.082 62.7809 129.184 62.7566C130.247 62.5081 131.586 62.9152 132.277 63.7813C132.48 64.0933 132.661 64.2217 132.46 64.346C132.339 64.4093 132.077 64.4235 131.75 64.2245C131.688 64.1293 131.314 64.0275 131.228 63.9745C131.123 63.9101 130.847 63.9586 130.532 63.9877C128.838 67.1584 126.323 70.3204 122.781 71.9319C119.832 73.2733 116.415 73.6133 112.799 72.1856C112.677 72.1375 112.404 72.1181 112.066 72.0942C111.861 72.0801 111.635 72.0634 111.373 72.035L111.349 72.0319C103.496 76.2955 98.0439 71.2963 92.9289 67.0722C92.1308 66.413 91.6079 65.7214 90.8808 65.1453C90.7764 65.1432 90.669 65.1508 90.558 65.1768C90.0098 65.3052 89.532 65.406 89.1863 65.6511L88.8958 65.8546C88.5841 66.0603 88.2415 66.071 88.0356 65.7601C87.9333 65.5143 88.0806 65.6099 88.452 65.5091L88.7086 65.3319C89.1517 65.0179 89.4884 64.3204 90.299 64.13C90.7792 64.0174 91.1592 63.8534 91.5254 63.8547C91.8943 63.8561 92.2261 63.9035 92.551 63.9711C92.9158 64.0465 93.1498 64.4031 93.0739 64.7669C92.9983 65.1308 92.6411 65.3648 92.2767 65.289C92.093 65.2505 91.9047 65.2211 91.7008 65.2097L91.7015 65.21Z" fill="#FEFEFE"/>
<path d="M0 239.039H4.57438V216.203H23.745V212.177H4.57438V193.487H25.1291V189.461H0V239.039ZM48.9642 240.001C51.6926 240.001 54.1707 239.34 56.3977 238.018C58.6247 236.696 60.4003 234.873 61.7245 232.549V239.04H66.1186V208.271H61.7245V214.671C60.5609 212.367 58.8456 210.564 56.5683 209.262C54.291 207.96 51.7529 207.309 48.9642 207.309C46.035 207.309 43.4166 208.01 41.0994 209.422C38.7822 210.834 36.956 212.778 35.6221 215.242C34.2879 217.706 33.616 220.5 33.616 223.625C33.616 226.79 34.298 229.605 35.6523 232.068C37.0066 234.532 38.8325 236.465 41.1396 237.878C43.4471 239.29 46.0555 240.001 48.9642 240.001ZM50.0477 236.185C47.7604 236.185 45.724 235.644 43.928 234.563C42.1323 233.481 40.718 231.998 39.6948 230.115C38.6716 228.233 38.1598 226.079 38.1598 223.655C38.1598 221.211 38.6716 219.048 39.6948 217.165C40.7183 215.282 42.1222 213.799 43.9082 212.728C45.6939 211.656 47.7403 211.125 50.0477 211.125C52.3549 211.125 54.4012 211.656 56.1869 212.728C57.9725 213.799 59.3768 215.282 60.3899 217.165C61.4031 219.048 61.9048 221.211 61.9048 223.655C61.9048 226.079 61.393 228.233 60.3698 230.125C59.3463 232.018 57.9521 233.501 56.1765 234.573C54.4009 235.644 52.3545 236.185 50.0474 236.185H50.0477ZM86.7336 240.001C88.6999 240.001 90.4249 239.54 91.9096 238.619L90.7962 235.133C89.9134 235.795 88.8701 236.125 87.6663 236.125C85.1185 236.125 83.8443 234.372 83.8443 230.867V211.576H91.5184V208.271H83.8443V196.762H79.4506V208.271H76.3207V211.576H79.4506V231.107C79.4506 233.931 80.0924 236.115 81.3666 237.667C82.6405 239.22 84.4261 240.001 86.7336 240.001V240.001ZM124.804 240.001C127.954 240.001 130.893 239.54 133.612 238.619C136.33 237.697 138.717 236.455 140.784 234.893L138.617 231.077C136.851 232.5 134.805 233.591 132.478 234.352C130.151 235.114 127.683 235.494 125.074 235.494C121.924 235.494 119.046 234.953 116.427 233.872C113.809 232.79 111.532 231.277 109.605 229.344C107.68 227.411 106.195 225.158 105.141 222.584C104.088 220.01 103.556 217.245 103.556 214.281C103.556 211.296 104.088 208.522 105.141 205.957C106.195 203.393 107.68 201.14 109.605 199.207C111.532 197.273 113.809 195.771 116.427 194.689C119.046 193.608 121.924 193.067 125.074 193.067C127.683 193.067 130.151 193.447 132.478 194.209C134.805 194.97 136.852 196.061 138.617 197.484L140.784 193.668C138.698 192.085 136.29 190.833 133.561 189.922C130.833 189.01 127.913 188.56 124.804 188.56C121.072 188.56 117.621 189.21 114.441 190.512C111.261 191.814 108.482 193.627 106.105 195.961C103.727 198.295 101.871 201.029 100.547 204.154C99.2227 207.279 98.5608 210.654 98.5608 214.28C98.5608 217.906 99.2231 221.282 100.547 224.407C101.871 227.532 103.717 230.256 106.084 232.59C108.452 234.924 111.231 236.746 114.421 238.048C117.611 239.351 121.072 240.001 124.804 240.001V240.001ZM163.054 240.001C165.783 240.001 168.261 239.34 170.488 238.018C172.715 236.696 174.49 234.873 175.815 232.549V239.04H180.209V208.271H175.815V214.671C174.651 212.367 172.936 210.564 170.658 209.262C168.381 207.96 165.843 207.309 163.054 207.309C160.125 207.309 157.507 208.01 155.189 209.422C152.872 210.834 151.046 212.778 149.712 215.242C148.378 217.706 147.706 220.5 147.706 223.625C147.706 226.79 148.388 229.605 149.742 232.068C151.097 234.532 152.923 236.465 155.23 237.878C157.537 239.29 160.146 240.001 163.054 240.001ZM164.138 236.185C161.85 236.185 159.814 235.644 158.018 234.563C156.222 233.481 154.808 231.998 153.785 230.115C152.762 228.233 152.25 226.079 152.25 223.655C152.25 221.211 152.762 219.048 153.785 217.165C154.808 215.282 156.212 213.799 157.998 212.728C159.784 211.656 161.83 211.125 164.138 211.125C166.445 211.125 168.491 211.656 170.277 212.728C172.063 213.799 173.467 215.282 174.48 217.165C175.493 219.048 175.995 221.211 175.995 223.655C175.995 226.079 175.483 228.233 174.46 230.125C173.436 232.018 172.042 233.501 170.267 234.573C168.491 235.644 166.445 236.185 164.137 236.185H164.138ZM200.824 240.001C202.79 240.001 204.515 239.54 206 238.619L204.886 235.133C204.004 235.795 202.96 236.125 201.756 236.125C199.209 236.125 197.934 234.372 197.934 230.867V211.576H205.609V208.271H197.934V196.762H193.541V208.271H190.411V211.576H193.541V231.107C193.541 233.931 194.182 236.115 195.457 237.667C196.731 239.22 198.516 240.001 200.824 240.001V240.001Z" fill="black"/>
</g>
<defs>
<clipPath id="clip0">
<rect width="206" height="240" fill="white"/>
</clipPath>
</defs>
</svg>
